<svg class="svg-icon" style="width: 1em;height: 1em;vertical-align: middle;fill: currentColor;overflow: hidden;" viewBox="0 0 1024 1024" version="1.1" xmlns="http://www.w3.org/2000/svg"><path d="M512 1024a512 512 0 1 1 512-512 512 512 0 0 1-512 512z m0-992a480 480 0 1 0 480 480A480 480 0 0 0 512 32z m16 623.2V736h48a16 16 0 0 1 0 32h-128a16 16 0 0 1 0-32h48v-80.8A160 160 0 0 1 352 496a16 16 0 0 1 32 0 128 128 0 0 0 256 0 16 16 0 0 1 32 0 160 160 0 0 1-144 159.2zM512 592a96 96 0 0 1-96-96v-144a96 96 0 0 1 192 0v144a96 96 0 0 1-96 96z m64-240a64 64 0 0 0-128 0v144a64 64 0 0 0 128 0v-144z"  /></svg>